<?xml version="1.0" encoding="UTF-8"?>
<svg width="1273px" height="866px" viewBox="0 0 1273 866" version="1.1" xmlns="http://www.w3.org/2000/svg" xmlns:xlink="http://www.w3.org/1999/xlink">
    <!-- Generator: Sketch 61.1 (89650) - https://sketch.com -->
    <title>Group 11</title>
    <desc>Created with Sketch.</desc>
    <defs>
        <linearGradient x1="-2.81309363e-05%" y1="50.0000058%" x2="100.000016%" y2="50.0000058%" id="linearGradient-1">
            <stop stop-color="#F87B58" offset="0%"></stop>
            <stop stop-color="#F8C548" offset="50%"></stop>
            <stop stop-color="#F89C51" offset="100%"></stop>
        </linearGradient>
        <linearGradient x1="0%" y1="50%" x2="100%" y2="50%" id="linearGradient-2">
            <stop stop-color="#4F68CA" offset="0%"></stop>
            <stop stop-color="#5ACEED" offset="100%"></stop>
        </linearGradient>
        <linearGradient x1="0%" y1="50.0000968%" x2="100%" y2="50.0000968%" id="linearGradient-3">
            <stop stop-color="#7658F4" offset="0%"></stop>
            <stop stop-color="#E1A1ED" offset="100%"></stop>
        </linearGradient>
        <linearGradient x1="0.130311726%" y1="50.0000723%" x2="100.130339%" y2="50.0000723%" id="linearGradient-4">
            <stop stop-color="#4F68CA" offset="0%"></stop>
            <stop stop-color="#5ACEED" offset="100%"></stop>
        </linearGradient>
        <linearGradient x1="-5.83739197e-09%" y1="50.0000148%" x2="99.9999806%" y2="50.0000148%" id="linearGradient-5">
            <stop stop-color="#F87B58" offset="2%"></stop>
            <stop stop-color="#F8C548" offset="51%"></stop>
            <stop stop-color="#F89C51" offset="100%"></stop>
        </linearGradient>
        <linearGradient x1="0%" y1="49.9999877%" x2="99.9999618%" y2="49.9999877%" id="linearGradient-6">
            <stop stop-color="#E1A1ED" offset="0%"></stop>
            <stop stop-color="#7658F4" offset="100%"></stop>
        </linearGradient>
        <linearGradient x1="98.6337776%" y1="50.0000539%" x2="4.21367712%" y2="50.0000539%" id="linearGradient-7">
            <stop stop-color="#4F6ACB" offset="0%"></stop>
            <stop stop-color="#5ACEED" offset="100%"></stop>
        </linearGradient>
    </defs>
    <g id="Page-1" stroke="none" stroke-width="1" fill="none" fill-rule="evenodd">
        <g id="Group-11">
            <g id="bg13" fill-rule="nonzero">
                <path d="M65,643 C65,643 103.647554,458.63387 152.601123,373.54181 C201.554691,288.449749 277.561548,52.5126736 618.948276,74.4303254 C960.335005,96.3479773 984.811789,213.671878 1040.20662,343.888516 C1095.60144,474.105153 1179.33781,454.766049 1211.54411,523.097552 C1243.7504,591.429054 1228.29138,608.189612 1228.29138,608.189612 L65,643 Z" id="Path" fill="#F8F8FF"></path>
                <path d="M65,642.784697 C65,642.784697 99.7740864,681.43436 95.910299,690.452615 C92.0465116,699.47087 0.603543743,799.959994 168.03433,833.456369 C335.465116,866.952744 993.596899,882.412609 1085.03987,841.186301 C1176.48283,799.959994 1144.28461,779.34684 1110.79845,736.832211 C1077.31229,694.317581 1176.48283,735.543889 1198.37763,691.740937 C1211.63227,665.141613 1221.58044,637.01863 1228,608 L65,642.784697 Z" id="Path" fill="#F5F5FC"></path>
                <path d="M1226.08651,558.581827 C1226.08651,558.581827 1094.43359,429.089872 714.194599,509.094867 C333.955603,589.099861 197.327354,492.990636 140.613741,492.990636 C83.9001279,492.990636 81,643 81,643 L1228.32928,608.055883 L1231.40986,598.287531 C1231.96453,595.310694 1232.12919,592.274165 1231.89966,589.254709 L1231.40986,583.318855 C1231.2545,581.535451 1231.00929,579.761038 1230.67516,578.002394 L1226.08651,558.581827 Z" id="Path" fill="#E9EDFA"></path>
                <path d="M64.0593032,642 C64.0593032,642 -80.074129,569.447185 64.0593032,530.204054 C64.0593032,530.204054 127.224836,367.259467 241.554449,508.799879 C241.554449,508.799879 346.383451,498.091356 348.768272,568.26307 C348.768272,568.26307 371.404737,583.708054 405.952415,587.299013 C440.500094,590.889972 442.884916,619.41171 435.730452,627.739131 C428.575989,636.066552 403.580485,638.434783 403.580485,638.434783 L64.0593032,642 Z" id="Path" fill="#BAC6F2"></path>
                <path d="M91.2848109,641 C91.2848109,641 -15.1060137,587.44341 91.2848109,558.468484 C91.2848109,558.468484 137.887243,438.188397 222.292867,542.660465 C222.292867,542.660465 299.705546,534.762897 301.421527,586.554451 C301.421527,586.554451 318.129763,597.969206 343.624339,600.597434 C369.118914,603.225663 370.886504,624.303021 365.557931,630.448437 C360.229358,636.593853 341.818043,638.346005 341.818043,638.346005 L91.2848109,641 Z" id="Path" fill="#B1C1F2"></path>
                <path d="M1150.31615,610 L1150.20024,292.828103 C1150.20024,292.828103 997.734711,280.774309 1020.27354,185.296927 C1035.11053,122.413725 1085.28841,117.468579 1084.07775,84.3077669 C1083.20195,60.3547145 1104.9809,-37.7240207 1170.79429,15.7067398 C1222.78815,57.9207753 1198.35606,92.7299692 1225.20946,97.6751155 C1252.70683,102.736164 1286.25749,148.981008 1267.60822,176.102045 C1248.95895,203.223082 1269.73331,204.227565 1269.73331,217.788083 C1269.73331,231.348602 1280.75802,270.780992 1224.8102,280.890211 C1168.86239,290.999429 1158.01799,294.309071 1158.01799,294.309071 L1162.71895,609.93561 L1150.31615,610 Z" id="Path" fill="#B1C1F2"></path>
                <path d="M1113.62824,611 L1113.62824,451.558344 C1113.62824,451.558344 1061.00902,445.486337 1068.78393,397.373396 C1073.94141,365.688322 1091.21898,363.192624 1090.80638,346.481739 C1090.50982,334.414911 1098.02685,284.989798 1120.73267,311.915035 C1138.6807,333.179926 1130.24822,350.726999 1139.5059,353.222697 C1148.99567,355.795581 1160.57422,379.080187 1154.14026,392.742203 C1147.7063,406.40422 1154.8752,406.893069 1154.8752,413.749806 C1154.8752,420.606543 1158.74331,440.456348 1139.40275,445.576388 C1120.06219,450.696428 1119.54645,450.722157 1119.54645,450.722157 L1119.85589,610.498288 L1113.62824,611 Z" id="Path" fill="#B1C1F2"></path>
                <path d="M1064.99458,612.845321 L1065.149,344.154246 C1065.149,344.154246 1173.38197,333.945403 1157.38701,253.022277 C1146.8481,199.722321 1111.2294,195.533086 1112.09156,167.445878 C1112.70923,147.144202 1097.25473,64.0297833 1050.53092,109.312189 C1013.62542,145.081809 1030.97152,174.586912 1011.92684,178.776147 C992.406044,183.068501 968.587326,222.253959 981.828526,245.249635 C995.069725,268.245312 980.322967,269.083159 980.322967,280.580997 C980.322967,292.078835 972.499206,325.489594 1012.2228,334.112973 C1051.9464,342.736351 1059.64148,345.481911 1059.64148,345.481911 L1056.68184,613 L1064.99458,612.845321 Z" id="Path" fill="#BAC6F2"></path>
                <circle id="Oval" fill="#FFFFFF" cx="406" cy="281" r="31"></circle>
                <circle id="Oval" fill="#FFFFFF" cx="302" cy="281" r="31"></circle>
                <circle id="Oval" fill="#FFFFFF" cx="355.5" cy="279.5" r="41.5"></circle>
                <circle id="Oval" fill="#FFFFFF" cx="796" cy="213" r="31"></circle>
                <circle id="Oval" fill="#FFFFFF" cx="849.5" cy="211.5" r="41.5"></circle>
            </g>
            <rect id="Rectangle" fill="#FFFFFF" x="397" y="300" width="453" height="331" rx="32"></rect>
            <g id="Boy" transform="translate(214.000000, 368.000000)" fill-rule="nonzero">
                <g>
                    <g id="Group" transform="translate(7.000000, 336.000000)" fill="#4B44BE">
                        <path d="M108.5,18.5 C103,18.2 96.8,11.9 96.8,11.9 L84.5,10.3 C84.5,10.3 80.7,21.9 84.8,24.3 C88.9,26.7 113.6,27.4 113.6,24.3 C113.6,21.2 113.2,18.7 108.5,18.5 Z" id="Path"></path>
                        <path d="M24.8,18.1 C20,15.4 17.3,6.9 17.3,6.9 L7,0 C7,0 -1.7,8.7 1,12.6 C3.7,16.5 25.3,28.4 26.7,25.6 C28.1,22.8 28.9,20.5 24.8,18.1 Z" id="Path"></path>
                    </g>
                    <path d="M50.2,23.9 C50.2,23.9 62,-1.1 81,11.9 C100,24.9 100.4,42 94.7,50.2 C88,59.9 89.7,67.8 90.9,70.9 C91.2,71.8 91.9,72.6 92.7,73 L124.8,91 L137.6,103.1 L168.4,64.3 C168.4,64.3 173.4,57.3 182.4,57.3 C191.4,57.3 195.4,60.3 195.4,60.3 C195.4,60.3 196.4,64.3 185.4,67.3 L174.4,70.3 L146.4,120.3 C146.4,120.3 138.1,123.8 129.2,116.4 C121.4,109.9 114.1,102.9 107.4,95.3 L106.4,211.3 L109.8,244.5 L108.4,264.1 C108.5,265.9 107.7,285.3 107.6,287.1 L105.4,317.1 L102.7,347.5 L91.5,346.1 L89.6,324.1 L85.2,245 L84.7,173.5 L65.3,218.3 L66,244.4 L50,294 C49.3,296.1 48.5,298.1 47.5,300 L24.6,343.2 L13.8,336.5 L26.1,305.3 C27.4,302.6 33.8,281.9 34.6,279 L42.8,240.2 L78.4,104.5 L60.5,113.6 C60.5,113.6 47.4,142.9 45.4,145.9 C43.4,148.9 19.5,179.1 18.5,183.1 C17.5,187.1 13.7,194.8 8.7,196.8 C3.7,198.8 -5.3,202.1 7.7,183.1 C17.9,168.2 24.4,157.1 26.8,153.1 C27.4,152 28,150.9 28.5,149.7 L42,115.7 L63.5,81.2 L66.4,79.1 L72.5,74.3 C73.3,73.7 73.7,72.7 73.6,71.7 C72.9,67.1 70.5,62.9 66.8,60.1 C59.8,54.5 45.6,43.9 50.2,23.9 Z" id="Path" fill="url(#linearGradient-1)"></path>
                    <polygon id="Path" fill="url(#linearGradient-2)" points="54.4 175.3 42.4 240.3 66.4 245.3 81.4 191.3 85 245.2 110.1 245.2 112.4 161.3"></polygon>
                    <path d="M41.5,116.4 C41.5,116.4 49.2,88.6 64.7,79.4 C66.3,78.5 69.1,75.6 69.3,77.3 C69.6,80.3 71.3,87.3 78.3,87.3 C89.3,87.3 92.5,78.1 92.5,73.1 C92.5,71.6 98.7,71.9 104.1,72.8 C109.2,73.6 114.3,75.8 117.7,79.6 L127.9,93.9 L118.4,104.4 L115.4,106 L112.4,161.4 C112.4,161.4 90.3,171.6 70.4,174.4 C65.1,175 59.7,175.4 54.4,175.4 L58.4,118.4 L41.5,116.4 Z" id="Path" fill="url(#linearGradient-3)"></path>
                    <path d="M57.1,41.5 C60.6,37.3 64.4,33.4 68.5,29.8 C74.3,25 77.3,22.2 77.3,22.2 C77.3,22.2 85.2,28 88.4,29.1 C91.6,30.2 96.4,32.2 96.4,32.2 C96.4,32.2 99.1,23.2 92.4,22.1 C85.7,21 65.6,13.7 61.4,16.9 C57.2,20.1 50.1,29.3 49.1,33.7 C48.1,38.1 50.6,43.8 52.2,44.9 C53.1,45.5 50.6,40.4 52,39.4 C53,38.5 57.1,41.5 57.1,41.5 Z" id="Path" fill="url(#linearGradient-4)"></path>
                    <path d="M49.1,33.7 L111.8,19 C111.8,19 113,16.1 110.7,16 C108.4,15.9 94.1,20.7 94.1,20.7 C94.1,20.7 87.9,2.5 67.7,2.9 C67.7,2.9 68.5,1.1 67.4,1 C66.3,0.9 61.1,2.3 60.7,2.7 C60.3,3.1 61.5,4.3 60.9,4.8 C60.3,5.3 42.7,13.7 49.1,33.7 Z" id="Path" fill="#4B44BE"></path>
                    <path d="M92.9,52.3 C92.9,52.3 88.8,57.4 85.5,58.5 C82.2,59.6 84.1,59.7 85.5,63.8 C86.2,66 87.2,68 88.5,69.9 C88.5,69.9 90.3,53.8 92.9,52.3 Z" id="Path" fill="#000000" opacity="0.07"></path>
                    <path d="M60.9,4.9 C60.9,4.9 63.7,7.6 61.9,14.7 C60.1,21.8 59.5,24 61,26.7 C62.5,29.4 61.4,30.9 61.4,30.9 L49.1,33.8 C49.2,33.7 41.5,15.7 60.9,4.9 Z" id="Path" fill="#000000" opacity="0.07"></path>
                    <path d="M58.4,118.3 C58.4,118.3 62.3,112.7 62.7,107.6 C63.1,102.5 60.9,117.7 63.4,126.8 C65.9,135.9 63,143.8 68.1,147 C73.2,150.2 69.2,161.1 70.3,165.8 C71,168.6 73,170.9 75.7,172 C75.7,172 75,174.5 66.3,174.9 C57.6,175.3 54.4,175.3 54.4,175.3 L58.4,118.3 Z" id="Path" fill="#000000" opacity="0.07"></path>
                </g>
            </g>
            <text id="404" font-family="Roboto-Regular, Roboto" font-size="140" font-weight="normal" letter-spacing="4.19161677" fill="#B1C1F2">
                <tspan x="506" y="466">404</tspan>
            </text>
            <text id="Something’s-missing" font-family="Roboto-Regular, Roboto" font-size="26" font-weight="normal" fill="#A0B4F1">
                <tspan x="507" y="511">Something’s missing</tspan>
            </text>
            <text id="This-page-is-missing" font-family="Roboto-Regular, Roboto" font-size="16" font-weight="normal" fill="#A0B4F1">
                <tspan x="490.132812" y="547">This page is missing or you assembled</tspan>
                <tspan x="561.039062" y="574">the link incorrectly.</tspan>
            </text>
            <g id="Girl" transform="translate(838.000000, 376.000000)" fill-rule="nonzero">
                <g id="Layer_1">
                    <g id="Group" transform="translate(74.000000, 336.000000)" fill="#4B44BE">
                        <path d="M18.2,1.7 C18.2,1.7 11,9.5 5.6,9.8 C1,10 0.4,11.8 0.4,14.9 C0.4,18 20.4,17.4 26.9,16.2 C31.5,15.4 28.3,1.9 28.3,1.9 L18.2,1.7 Z" id="Path"></path>
                        <path d="M81.7,0.3 L72.6,1.2 C72.6,1.2 65.8,9.1 60.5,9.8 C55.9,10.4 54.8,12.4 55,15.5 C55.2,18.6 77.8,16.5 81.7,13.9 C85.6,11.3 81.7,0.3 81.7,0.3 Z" id="Path"></path>
                    </g>
                    <path d="M137.7,23.1 C135.9,43.4 134.1,42.9 128.4,50 C125.6,53.5 121,57.8 120.5,62.3 C120.4,63.3 120.8,64.2 121.6,64.9 L127.6,69.7 L130.1,71.6 C130.3,71.8 130.5,72 130.6,72.2 L151.4,106.3 L151.5,106.4 L164.4,131 C165.2,132.5 164,137.2 162.8,138.5 C156.6,145.1 142.3,152.1 144.4,158.7 C151.3,180.5 145.7,175.4 141.7,171.9 C139.6,170 136.8,161 135.8,157 C134.8,153 153.8,134 151.8,131 C150,128.2 135.9,107.9 133.7,104.7 C133.5,104.4 133.3,104.2 132.9,104 L119.6,97.1 C118.6,96.6 117.3,97 116.8,98 C116.6,98.4 116.5,98.8 116.6,99.3 L137,217.6 L137,217.7 L140.6,249.3 C140.6,249.3 140.6,249.4 140.6,249.5 C140.7,253.3 142.4,271.3 142.8,274.9 C143.8,282.1 145.5,285.6 146.8,292.3 L155.2,334 C155.4,335.2 156.4,338.3 155.2,338.5 L148.3,338.6 C147.3,338.7 146.3,336.7 146,335.7 L131.3,291 C130.3,287.6 125.3,277.9 123.9,270.4 C121.9,260.1 120,248.4 119.1,243.9 L114.8,219.3 C114.7,218.5 115,217.6 115.7,217.2 L127,210 C127.9,209.5 128.2,208.4 127.8,207.4 L115.3,177.3 C114.8,176.2 113.6,175.8 112.5,176.2 C111.7,176.6 111.2,177.4 111.3,178.3 L115,214.8 C115,214.9 115,215.1 115,215.2 L112.8,242.4 C112.8,242.5 112.8,242.5 112.8,242.6 L106.8,278.8 C106.8,278.9 106.8,278.9 106.8,279 L102.4,336.2 C102.3,337.3 102.1,339.7 101.1,339.7 L93.7,340 C92.5,340 92,337.3 92,336.1 L91.8,307.1 L91.8,307 L90.4,286.7 C90.4,286.7 90.4,286.6 90.4,286.5 C89.7,282.4 90.2,273.6 90.4,267.4 C90.7,258.9 91.4,254.1 91.5,252.6 L92.2,228.9 C92.2,228.8 92.2,228.7 92.2,228.6 L88.5,202.3 C88.5,202.2 88.5,202.1 88.5,202 L88.5,92 C88.5,90.8 87.6,89.9 86.4,89.9 C85.7,89.9 85.1,90.2 84.7,90.8 C79.8,97.8 74,104.3 67.5,109.9 C61.5,114.9 57.8,115.8 56,115.9 C55.3,115.9 54.6,115.6 54.2,115 L22.2,70.4 C21.8,69.8 21,69.5 20.3,69.5 L15.5,70 C15.4,70 15.2,70 15.1,70 C7.7,69.3 3.5,67.1 1,66.2 C0.2,65.9 -0.2,65.1 0.1,64.4 C0.2,64.1 0.4,63.9 0.6,63.7 C4.4,61 9,59.4 13.7,59.2 C19.1,59.3 24.5,60.7 29.3,63.2 C29.5,63.3 29.8,63.5 29.9,63.7 L56.3,97 C57,97.9 58.3,98.1 59.2,97.4 C59.4,97.3 59.5,97.1 59.6,96.9 L70.1,81.9 C70.3,81.6 70.5,81.4 70.8,81.3 L101.8,63.5 C102.6,63 103.3,62.3 103.6,61.4 C104.7,58.3 105.9,55.2 101.3,46.3 C98.1,40.1 94.6,15.3 113.2,2.3 C117,-0.4 115.1,4.3 118.3,4.3 C130.6,4.3 135.3,18.1 135.3,18.1" id="Path" fill="url(#linearGradient-5)"></path>
                    <path d="M101.9,63.8 C101.9,68.8 105.1,78 115.8,78 C122.7,78 124.3,70.9 124.7,68 C124.9,66.3 127.6,69.2 129.2,70.1 C144.5,79.3 152,107.1 152,107.1 L135.5,109 L133.4,150.1 L157,219.3 C157.4,220.4 156.8,221.6 155.7,222 C155.4,222.1 155.1,222.1 154.7,222.1 C145.5,220.9 120.3,217.9 115.7,221.1 C103.9,229.1 74,225.6 74,222.6 C74,218.2 88.1,144.4 88.1,144.4 L79.7,96.5 L77.3,94.6 L68.1,85.1 L77.4,70.2 C80.7,66.4 85.7,64.2 90.7,63.4 C93.2,63 95.8,62.8 98.3,62.7 C100.4,62.9 101.9,63.1 101.9,63.8" id="Path" fill="url(#linearGradient-6)"></path>
                    <path d="M135,42.4 C134.2,42.7 133.3,42.4 132.8,41.7 C128.9,36.6 113.1,15.9 112.5,14.6 C111.8,13.1 100.9,26.1 99.2,31 C97.2,36.9 96.7,21.7 95.8,19.4 C94.9,17.1 87.4,28.9 83.5,29.9 C79.6,30.9 78.4,28.4 75.8,33 C74.3,35.8 77.2,15.9 87.2,9.3 C93.7,5 95.5,16.1 95.5,16.1 C99.2,11 104,6.8 109.5,3.8 C117.5,-0.6 125.2,-0.9 135.4,8.6 C141.3,14.1 146.3,25.1 146.1,30.2 C145.9,35.1 150.9,30.9 151.8,29.9 C152.7,28.9 161.4,31.2 159.9,38.5 C158.4,45.8 158.1,45.4 152.7,49.7 C149.7,52 147.1,54.8 145.2,57.9 L145.2,39.4 C145.1,37.4 139.3,40.8 135,42.4 Z" id="Path" fill="url(#linearGradient-7)"></path>
                    <path d="M112.5,54.8 C112.5,54.8 119.7,59.3 123.3,54.6 C125.6,51.5 119.1,61.1 120.2,64.9 C121.3,68.7 112.5,54.8 112.5,54.8 Z" id="Path" fill="#000000" opacity="0.07"></path>
                    <path d="M126.3,91 L135.4,109 L133.3,150.1 L156.9,219.3 C156.9,219.3 161.8,222.8 148,221.3 C134.2,219.8 125.3,219.3 120.9,219.3 C116.5,219.3 106.1,214.9 121.9,199.6 C128.3,193.4 126.8,188.7 122.4,172.5 C118,156.3 131.8,159.2 122.4,145.8 C113,132.4 135.7,113.7 126.3,91 Z" id="Path" fill="#000000" opacity="0.07"></path>
                </g>
            </g>
        </g>
    </g>
</svg>